<?xml version="1.0" encoding="UTF-8"?>
<svg version="1.1" xmlns="http://www.w3.org/2000/svg" width="1000" height="300">
<path d="M0 0 C330 0 660 0 1000 0 C1000 99 1000 198 1000 300 C670 300 340 300 0 300 C0 201 0 102 0 0 Z " fill="#D2302C" transform="translate(0,0)"/>
<path d="M0 0 C63.03 0 126.06 0 191 0 C191 62.7 191 125.4 191 190 C127.97 190 64.94 190 0 190 C0 127.3 0 64.6 0 0 Z " fill="#F6F6F8" transform="translate(125,57)"/>
<path d="M0 0 C19.08484997 -0.64142464 19.08484997 -0.64142464 27.84082031 4.11181641 C28.50082031 4.46244141 29.16082031 4.81306641 29.84082031 5.17431641 C36.8684084 9.53626763 41.31801119 17.17570288 43.36816406 25.05712891 C45.50437449 38.86305086 44.4706942 53.54455963 36.30957031 65.33837891 C28.66176595 74.57269587 19.46992914 78.37121549 7.84082031 80.11181641 C4.59234257 80.3421302 1.36953282 80.34794178 -1.88574219 80.30712891 C-3.19628067 80.30288406 -3.19628067 80.30288406 -4.53329468 80.29855347 C-7.28373782 80.28748944 -10.03383742 80.26241222 -12.78417969 80.23681641 C-14.66568535 80.22676874 -16.5471962 80.21764605 -18.42871094 80.20947266 C-23.00566326 80.18759553 -27.58236353 80.1531636 -32.15917969 80.11181641 C-32.15917969 78.79181641 -32.15917969 77.47181641 -32.15917969 76.11181641 C-30.50917969 76.11181641 -28.85917969 76.11181641 -27.15917969 76.11181641 C-27.15917969 52.68181641 -27.15917969 29.25181641 -27.15917969 5.11181641 C-28.80917969 5.11181641 -30.45917969 5.11181641 -32.15917969 5.11181641 C-32.15917969 3.79181641 -32.15917969 2.47181641 -32.15917969 1.11181641 C-23.7419115 0.78227738 -15.32403702 0.48570603 -6.90429688 0.22753906 C-4.60271362 0.15642104 -2.30124077 0.08145041 0 0 Z " fill="#F6F4F6" transform="translate(667.1591796875,112.88818359375)"/>
<path d="M0 0 C27.25509382 -2.33471415 27.25509382 -2.33471415 34.27148438 1.11767578 C37.69153361 4.23799746 39.24420768 8.32517205 40.91943359 12.56054688 C43.02698737 17.31849477 46.08039872 21.54172344 48.9375 25.875 C50.13119666 27.75032227 51.32132775 29.62791908 52.5078125 31.5078125 C56.20225948 37.33091592 59.9468032 43.12081074 63.71264648 48.89794922 C66.89750944 53.79501888 66.89750944 53.79501888 68 56 C68.13991615 47.44179545 67.71776425 39.02587537 67 30.5 C66.28223575 21.97412463 65.86008385 13.55820455 66 5 C63.36 5 60.72 5 58 5 C58 3.35 58 1.7 58 0 C66.25 0 74.5 0 83 0 C83 1.32 83 2.64 83 4 C80.69 4 78.38 4 76 4 C76.01160156 4.91507324 76.02320313 5.83014648 76.03515625 6.77294922 C76.16099695 22.15866932 75.57993987 37.52924222 75.07287598 52.90393066 C74.95010986 56.6455211 74.83068166 60.3872181 74.7109375 64.12890625 C74.47714787 71.4193765 74.23977431 78.70972386 74 86 C58.91368604 87.19864152 58.91368604 87.19864152 54.74316406 84.58642578 C53.18879296 82.48210389 52.15535697 80.46658485 51.125 78.0625 C50.26234726 76.3902555 49.39638022 74.71971715 48.52734375 73.05078125 C48.11081543 72.20080566 47.69428711 71.35083008 47.26513672 70.47509766 C45.34339941 66.71543481 43.03344765 63.25473313 40.6875 59.75 C39.77660549 58.3554973 38.86780806 56.95962289 37.9609375 55.5625 C37.48881836 54.83675781 37.01669922 54.11101562 36.53027344 53.36328125 C28.53052872 41.00885737 20.64232655 28.5789847 13 16 C13.41283315 26.15786841 13.88093682 36.3102085 14.51171875 46.45703125 C14.57924347 47.54557655 14.57924347 47.54557655 14.64813232 48.65611267 C14.87352354 52.27100067 15.10372538 55.88552138 15.33935547 59.49975586 C15.79833142 66.67441143 16.14506777 73.80893692 16 81 C18.64 81 21.28 81 24 81 C24 82.65 24 84.3 24 86 C15.42 86 6.84 86 -2 86 C-2 84.35 -2 82.7 -2 81 C-0.02 81 1.96 81 4 81 C3.99476318 80.44956528 3.98952637 79.89913055 3.98413086 79.33201599 C3.85090209 62.88427061 4.32804568 46.49493988 5 30.0625 C5.09676657 27.61394856 5.19312278 25.16538086 5.2890625 22.71679688 C5.5213336 16.81100305 5.75858395 10.90542672 6 5 C4.02 5 2.04 5 0 5 C0 3.35 0 1.7 0 0 Z " fill="#D2332F" transform="translate(180,109)"/>
<path d="M0 0 C25.17895683 -3.4721223 25.17895683 -3.4721223 32.61767578 1.88525391 C37.0602304 6.98321672 39.85818576 12.96211139 42.62353516 19.08837891 C44.64965932 23.37421728 47.22027885 27.2092863 49.875 31.125 C50.75641882 32.47883625 51.63541178 33.83425562 52.51171875 35.19140625 C55.96476918 40.48984419 59.47506287 45.7491883 63 51 C63.13801401 42.52363925 62.72987517 34.19288032 62 25.75 C61.40854242 18.81236247 60.86408697 11.96554285 61 5 C58.69 5 56.38 5 54 5 C54 3.35 54 1.7 54 0 C61.59 0 69.18 0 77 0 C77 1.65 77 3.3 77 5 C75.02 5 73.04 5 71 5 C71.00507568 5.91354752 71.01015137 6.82709503 71.01538086 7.76832581 C71.04341154 16.71865728 70.87938684 25.64402764 70.5625 34.58984375 C70.51810791 35.90038223 70.47371582 37.21092072 70.42797852 38.56117249 C70.31184722 41.98875767 70.19271362 45.41623163 70.07287598 48.84368896 C69.95035607 52.36382761 69.83078413 55.88406638 69.7109375 59.40429688 C69.47678489 66.26962995 69.23944898 73.13484965 69 80 C54.82662625 81.12076811 54.82662625 81.12076811 50.90625 78.71533203 C49.44154779 76.73569545 48.47574451 74.82361634 47.5 72.5625 C46.63998638 70.90319346 45.77372306 69.24711618 44.90234375 67.59375 C44.44843262 66.69398438 43.99452148 65.79421875 43.52685547 64.8671875 C40.7020381 59.56263759 37.34565655 54.59115654 34.0625 49.5625 C32.69481711 47.43735365 31.32891741 45.31105857 29.96484375 43.18359375 C28.96880127 41.63260986 28.96880127 41.63260986 27.95263672 40.05029297 C24.48484137 34.63310929 21.0552471 29.19190966 17.62915039 23.74829102 C17.17660889 23.02955811 16.72406738 22.3108252 16.2578125 21.5703125 C15.8673877 20.94914551 15.47696289 20.32797852 15.07470703 19.68798828 C14.07105066 18.11159569 13.03661279 16.55491918 12 15 C12.03758423 15.58722839 12.07516846 16.17445679 12.1138916 16.77947998 C12.50772751 22.94466413 12.89621752 29.11016933 13.28173828 35.27587891 C13.42590167 37.57056012 13.57138422 39.86515888 13.71826172 42.15966797 C13.9303123 45.47602362 14.13746513 48.7926563 14.34375 52.109375 C14.40937134 53.11925476 14.47499268 54.12913452 14.54260254 55.1696167 C14.96858323 62.12087306 15.0727953 69.03649415 15 76 C17.31 76 19.62 76 22 76 C22 77.32 22 78.64 22 80 C14.41 80 6.82 80 -1 80 C-1 78.68 -1 77.36 -1 76 C0.65 76 2.3 76 4 76 C3.99492432 75.14989349 3.98984863 74.29978699 3.98461914 73.42391968 C3.9562818 64.99305463 4.12371831 56.58856626 4.4375 48.1640625 C4.48189209 46.9186972 4.52628418 45.67333191 4.57202148 44.39022827 C4.7123478 40.4683974 4.85611092 36.54670161 5 32.625 C5.09686461 29.94272659 5.19297298 27.26042627 5.2890625 24.578125 C5.52342417 18.05198666 5.76059662 11.52595523 6 5 C4.02 5 2.04 5 0 5 C0 3.35 0 1.7 0 0 Z " fill="#F6F2F4" transform="translate(365,113)"/>
<path d="M0 0 C0.99 0.33 1.98 0.66 3 1 C3.33 15.85 3.66 30.7 4 46 C11.16862882 37.6343889 11.16862882 37.6343889 18 29 C23.49034194 29.13725855 26.38679241 31.43102651 30.23046875 35.046875 C35.22469307 40.55926387 35.3244995 45.9691776 35 53 C32.03 54.32 29.06 55.64 26 57 C27.6529183 63.61167322 31.32706612 69.21804408 37 73 C37.99 72.67 38.98 72.34 40 72 C40.33 73.32 40.66 74.64 41 76 C38.59205692 77.53641144 36.17531353 79.05396395 33.75 80.5625 C33.06808594 81.00013672 32.38617187 81.43777344 31.68359375 81.88867188 C31.01972656 82.29794922 30.35585938 82.70722656 29.671875 83.12890625 C29.0644043 83.51119385 28.45693359 83.89348145 27.83105469 84.28735352 C25.48550471 85.20024157 24.32329583 84.88013774 22 84 C16.38379882 78.63373448 13.24815954 70.91097775 10 64 C6.535 64.99 6.535 64.99 3 66 C3 70.62 3 75.24 3 80 C4.32 80 5.64 80 7 80 C7 81.32 7 82.64 7 84 C-1.25 84 -9.5 84 -18 84 C-18 83.01 -18 82.02 -18 81 C-16.68 81 -15.36 81 -14 81 C-14 57.24 -14 33.48 -14 9 C-15.65 9.33 -17.3 9.66 -19 10 C-19.33 8.68 -19.66 7.36 -20 6 C-19.4652002 5.85377197 -18.93040039 5.70754395 -18.37939453 5.55688477 C-15.96066661 4.89424479 -13.54282904 4.22841194 -11.125 3.5625 C-10.28324219 3.33240234 -9.44148437 3.10230469 -8.57421875 2.86523438 C-7.36572266 2.53168945 -7.36572266 2.53168945 -6.1328125 2.19140625 C-5.01737061 1.88505249 -5.01737061 1.88505249 -3.87939453 1.57250977 C-1.9363705 1.03783733 -1.9363705 1.03783733 0 0 Z " fill="#F6F4F6" transform="translate(834,109)"/>
<path d="M0 0 C9.24 0 18.48 0 28 0 C28 1.32 28 2.64 28 4 C26.68 4 25.36 4 24 4 C24.20681396 4.71542969 24.41362793 5.43085938 24.62670898 6.16796875 C25.56982114 9.44356863 26.50372227 12.72172751 27.4375 16 C27.92573242 17.68802734 27.92573242 17.68802734 28.42382812 19.41015625 C30.09125614 25.28912924 31.46991904 30.90780194 32 37 C32.66 37 33.32 37 34 37 C33.9484375 35.9584375 33.896875 34.916875 33.84375 33.84375 C33.84375 27.60483887 35.26206855 21.58928445 36.5 15.5 C36.73847656 14.29601562 36.97695313 13.09203125 37.22265625 11.8515625 C37.80835809 8.89962525 38.40097207 5.94925665 39 3 C38.01 3 37.02 3 36 3 C36 2.01 36 1.02 36 0 C44.58 0 53.16 0 62 0 C62 0.99 62 1.98 62 3 C61.01 3 60.02 3 59 3 C61.50923778 19.59711895 61.50923778 19.59711895 68 34 C69.98 24.1 71.96 14.2 74 4 C72.68 4 71.36 4 70 4 C70 2.68 70 1.36 70 0 C76.6 0 83.2 0 90 0 C90 1.32 90 2.64 90 4 C88.68 4 87.36 4 86 4 C85.65195312 5.24652344 85.30390625 6.49304688 84.9453125 7.77734375 C82.5927329 15.61605052 79.68741903 23.26296314 76.84716797 30.93481445 C75.86637758 33.58580566 74.89189427 36.23905824 73.91796875 38.89257812 C73.29724644 40.57565787 72.67616597 42.25860557 72.0546875 43.94140625 C71.61719681 45.13341393 71.61719681 45.13341393 71.17086792 46.34950256 C69.11508672 51.88491328 69.11508672 51.88491328 68 53 C65.98035801 53.07244053 63.95832876 53.08377188 61.9375 53.0625 C60.28041016 53.04896484 60.28041016 53.04896484 58.58984375 53.03515625 C57.73519531 53.02355469 56.88054688 53.01195312 56 53 C55.70230713 52.16227051 55.40461426 51.32454102 55.09790039 50.46142578 C53.99377366 47.35624453 52.88851051 44.25147274 51.7824707 41.14697266 C51.3038232 39.8027344 50.82563048 38.45833411 50.34790039 37.11376953 C49.66151251 35.18218994 48.97349616 33.25119718 48.28515625 31.3203125 C47.87144775 30.15773926 47.45773926 28.99516602 47.03149414 27.79736328 C46.09329202 25.09478889 46.09329202 25.09478889 45 23 C40.84160809 32.81483805 37.48012953 42.9310859 34 53 C29.71 53 25.42 53 21 53 C20.5968457 51.90123535 20.19369141 50.8024707 19.77832031 49.67041016 C18.26642841 45.55105994 16.75262746 41.43241337 15.23828125 37.31396484 C14.5860764 35.53941341 13.93437309 33.76467755 13.28320312 31.98974609 C12.34119877 29.42235079 11.39772074 26.85550547 10.453125 24.2890625 C9.9978241 23.05183441 9.9978241 23.05183441 9.5333252 21.78961182 C7.65802203 16.71637319 5.71570255 11.68009927 3.62011719 6.69287109 C3 5 3 5 3 3 C2.01 3 1.02 3 0 3 C0 2.01 0 1.02 0 0 Z " fill="#F6F3F5" transform="translate(498,140)"/>
<path d="M0 0 C4.9609479 4.36201797 7.84170766 9.48714567 9 16 C9 18.64 9 21.28 9 24 C-7.335 24.495 -7.335 24.495 -24 25 C-20.52939946 33.84906441 -20.52939946 33.84906441 -14 38 C-7.14557901 38.87503247 -0.95617675 38.76179584 5 35 C5.99 35 6.98 35 8 35 C7.34789586 40.60216735 4.63143126 43.13007725 0.66015625 46.90625 C-5.43732037 51.70543865 -12.77931783 53.83127874 -20.51953125 53.4375 C-26.22135395 52.43182419 -31.01229895 50.23411027 -34.890625 45.875 C-41.1178236 36.92718065 -42.0275901 28.66943031 -40.375 18.0625 C-38.81908829 11.07744957 -35.48566329 4.68189986 -30.625 -0.5625 C-21.4942418 -5.56267711 -8.57308207 -6.48255422 0 0 Z " fill="#F6F2F4" transform="translate(490,142)"/>
<path d="M0 0 C5.53774471 4.70589465 9.08733236 9.15388564 9.8203125 16.546875 C9.8203125 19.186875 9.8203125 21.826875 9.8203125 24.546875 C-6.0196875 25.041875 -6.0196875 25.041875 -22.1796875 25.546875 C-20.51405857 35.09528076 -20.51405857 35.09528076 -16.6796875 37.109375 C-15.8546875 37.25375 -15.0296875 37.398125 -14.1796875 37.546875 C-12.6946875 38.041875 -12.6946875 38.041875 -11.1796875 38.546875 C-4.3882602 39.17414715 0.58359277 38.17286226 6.8203125 35.546875 C7.8103125 35.546875 8.8003125 35.546875 9.8203125 35.546875 C8.8767295 40.77735362 5.67520966 44.05878134 1.8203125 47.546875 C-6.01498003 52.38318264 -12.97908173 54.42912487 -22.1796875 53.546875 C-28.33519115 51.80316577 -32.76932561 47.88876929 -36.1796875 42.546875 C-38.82887696 37.33701314 -39.73157238 33.17979473 -39.6796875 27.359375 C-39.67469238 26.6183252 -39.66969727 25.87727539 -39.66455078 25.11376953 C-39.44741155 18.18777676 -37.665778 12.56154314 -34.1796875 6.546875 C-33.76847656 5.82628906 -33.35726562 5.10570312 -32.93359375 4.36328125 C-29.43514104 -0.63005927 -25.11036952 -1.86311455 -19.2734375 -3.01171875 C-11.82861953 -4.07392131 -6.32875836 -4.56080562 0 0 Z " fill="#F6F2F4" transform="translate(756.1796875,141.453125)"/>
<path d="M0 0 C9.08804151 1.00978239 16.04250954 2.39113124 22.375 9.25 C28.6255724 17.35980782 30.17926644 25.84165704 30.1875 35.8125 C30.19974609 36.58142578 30.21199219 37.35035156 30.22460938 38.14257812 C30.24743868 47.16015534 28.03817355 55.43008095 23 63 C15.69308062 70.1885887 10.41538403 71 0 71 C0 47.57 0 24.14 0 0 Z " fill="#D2312D" transform="translate(660,118)"/>
<path d="M0 0 C3.42777618 2.06048141 3.89334519 2.91169037 5.8125 6.75 C3.1725 9.06 0.5325 11.37 -2.1875 13.75 C-6.63748962 11.52500519 -8.4695139 9.22774653 -11.50390625 5.4296875 C-13.14509702 3.39685748 -13.14509702 3.39685748 -16.1875 3.75 C-16.290625 4.966875 -16.39375 6.18375 -16.5 7.4375 C-16.55800781 8.12199219 -16.61601563 8.80648437 -16.67578125 9.51171875 C-15.37841387 15.45885082 -7.66886312 19.50635465 -2.91601562 22.91210938 C1.43316731 26.14220431 5.09757444 29.59591665 6.34375 35.09375 C6.24805202 41.69691096 4.33131604 45.15710113 -0.3125 49.9375 C-6.25198717 53.6819593 -13.18073878 55.52852902 -20.1875 54.75 C-26.10030916 53.33657948 -31.25705193 50.46653769 -35.1875 45.75 C-35.1875 44.76 -35.1875 43.77 -35.1875 42.75 C-33.54296875 41.109375 -33.54296875 41.109375 -31.375 39.5 C-30.66730469 38.95859375 -29.95960938 38.4171875 -29.23046875 37.859375 C-28.55628906 37.49328125 -27.88210938 37.1271875 -27.1875 36.75 C-23.42674335 38.00358555 -22.71100869 39.45673887 -20.5 42.6875 C-19.87738281 43.58339844 -19.25476563 44.47929687 -18.61328125 45.40234375 C-17.1875 47.75 -17.1875 47.75 -17.1875 49.75 C-14.14904763 49.07465483 -14.14904763 49.07465483 -13 47 C-12.00771992 44.25214747 -11.6923433 42.6502035 -12.1875 39.75 C-16.37490444 35.1057878 -21.26230077 31.71366503 -26.34765625 28.12890625 C-30.03969961 25.03612165 -32.61658413 21.98462777 -33.82421875 17.2578125 C-33.929696 12.30849559 -33.36315515 9.27008275 -30.1875 5.375 C-21.89235397 -2.78795247 -10.80177088 -5.62737419 0 0 Z " fill="#F6F2F3" transform="translate(622.1875,140.25)"/>
<path d="M0 0 C1.72964957 1.24618125 3.16061747 2.61870971 4.62109375 4.16796875 C3.06156725 7.99589743 0.78477539 10.53156739 -2.37890625 13.16796875 C-5.12873326 12.99679478 -6.18521558 12.35741182 -8.16015625 10.42578125 C-8.72734375 9.72195312 -9.29453125 9.018125 -9.87890625 8.29296875 C-12.17627424 5.4630291 -14.38329431 3.25701392 -17.37890625 1.16796875 C-17.51521905 2.72799303 -17.61149751 4.29154051 -17.69140625 5.85546875 C-17.74941406 6.72558594 -17.80742188 7.59570312 -17.8671875 8.4921875 C-16.71564578 14.80263613 -9.0846442 18.76354281 -4.10742188 22.33007812 C0.24176106 25.56017306 3.90616819 29.0138854 5.15234375 34.51171875 C5.07454517 39.87982044 4.24977613 42.96633653 0.62109375 47.16796875 C-5.5966615 53.11538681 -11.04528694 54.7044961 -19.4921875 54.5546875 C-25.49376832 53.75068682 -30.35988189 50.80241704 -35.00390625 47.04296875 C-36.37890625 45.16796875 -36.37890625 45.16796875 -36.37890625 42.16796875 C-34.62890625 40.5625 -34.62890625 40.5625 -32.37890625 38.98046875 C-31.63640625 38.45066406 -30.89390625 37.92085937 -30.12890625 37.375 C-29.55140625 36.97667969 -28.97390625 36.57835937 -28.37890625 36.16796875 C-24.75005047 37.61951106 -23.22457952 39.40803255 -21.12890625 42.66796875 C-20.608125 43.46203125 -20.08734375 44.25609375 -19.55078125 45.07421875 C-18.37890625 47.16796875 -18.37890625 47.16796875 -18.37890625 49.16796875 C-15.25693147 47.85901155 -15.25693147 47.85901155 -13.37890625 45.16796875 C-12.87795602 42.29490647 -12.87795602 42.29490647 -13.37890625 39.16796875 C-17.307553 34.7227777 -21.95410945 31.36602049 -26.73828125 27.91796875 C-30.85999971 24.85064338 -33.81511402 22.08851406 -34.8125 16.921875 C-34.82215985 11.50269669 -34.03754627 8.41990174 -30.37890625 4.16796875 C-21.92647569 -3.82757367 -10.30720925 -5.7853368 0 0 Z " fill="#F6F2F4" transform="translate(806.37890625,140.83203125)"/>
<path d="M0 0 C2.7296651 0.60659224 4.49916025 1.34554806 6.22265625 3.59765625 C9.08100622 8.75088218 9.48429824 13.18842108 9 19 C3.91913204 19.84681133 -0.84828377 20.09038099 -6 20 C-6.57535802 12.08882721 -4.37006472 6.55509708 0 0 Z " fill="#D33633" transform="translate(472,143)"/>
<path d="M0 0 C4.07169222 2.09086898 6.22489331 3.73974394 8 8 C8.53418558 11.67706383 8.7761177 15.28355389 9 19 C4.05 19.33 -0.9 19.66 -6 20 C-6.33584807 13.84278535 -5.69286108 8.61843855 -3 3 C-1.39453125 1.23828125 -1.39453125 1.23828125 0 0 Z " fill="#D23430" transform="translate(740,143)"/>
<path d="M0 0 C3.26460973 1.80412643 4.88929795 2.83394693 7 6 C7 7.32 7 8.64 7 10 C1.72 12.31 -3.56 14.62 -9 17 C-9.48911001 13.52188434 -9.79121413 11.35619588 -9 8 C-6.34782319 4.8515094 -3.32007147 2.41759172 0 0 Z " fill="#D33834" transform="translate(846,154)"/>
</svg>
